<svg width="13" height="13" viewBox="0 0 13 13" fill="none" xmlns="http://www.w3.org/2000/svg">
<g opacity="0.5">
<mask id="path-1-inside-1_0_404" fill="white">
<path fill-rule="evenodd" clip-rule="evenodd" d="M0.676385 0.823981C0.186316 1.31405 0.186316 2.10861 0.676385 2.59868L4.55854 6.48083L0.676385 10.363C0.186316 10.8531 0.186316 11.6476 0.676385 12.1377C1.16645 12.6278 1.96101 12.6278 2.45108 12.1377L6.33324 8.25553L10.2154 12.1377C10.7055 12.6278 11.5 12.6278 11.9901 12.1377C12.4802 11.6476 12.4802 10.8531 11.9901 10.363L8.10794 6.48083L11.9901 2.59868C12.4802 2.10861 12.4802 1.31405 11.9901 0.823981C11.5 0.333911 10.7055 0.333911 10.2154 0.823981L6.33324 4.70614L2.45108 0.823981C1.96102 0.333911 1.16646 0.333911 0.676385 0.823981Z"/>
</mask>
<path fill-rule="evenodd" clip-rule="evenodd" d="M0.676385 0.823981C0.186316 1.31405 0.186316 2.10861 0.676385 2.59868L4.55854 6.48083L0.676385 10.363C0.186316 10.8531 0.186316 11.6476 0.676385 12.1377C1.16645 12.6278 1.96101 12.6278 2.45108 12.1377L6.33324 8.25553L10.2154 12.1377C10.7055 12.6278 11.5 12.6278 11.9901 12.1377C12.4802 11.6476 12.4802 10.8531 11.9901 10.363L8.10794 6.48083L11.9901 2.59868C12.4802 2.10861 12.4802 1.31405 11.9901 0.823981C11.5 0.333911 10.7055 0.333911 10.2154 0.823981L6.33324 4.70614L2.45108 0.823981C1.96102 0.333911 1.16646 0.333911 0.676385 0.823981Z" fill="white"/>
<path d="M0.676385 2.59868L1.38349 1.89157L0.676385 2.59868ZM4.55854 6.48083L5.26565 7.18794L5.97275 6.48083L5.26565 5.77373L4.55854 6.48083ZM0.676385 10.363L1.38349 11.0701L0.676385 10.363ZM2.45108 12.1377L3.15819 12.8448L2.45108 12.1377ZM6.33324 8.25553L7.04035 7.54843L6.33324 6.84132L5.62613 7.54843L6.33324 8.25553ZM10.2154 12.1377L9.50829 12.8448L10.2154 12.1377ZM11.9901 10.363L11.283 11.0701L11.9901 10.363ZM8.10794 6.48083L7.40083 5.77373L6.69373 6.48083L7.40083 7.18794L8.10794 6.48083ZM11.9901 2.59868L11.283 1.89157L11.9901 2.59868ZM10.2154 0.823981L9.50829 0.116874L10.2154 0.823981ZM6.33324 4.70614L5.62613 5.41324L6.33324 6.12035L7.04035 5.41324L6.33324 4.70614ZM1.38349 1.89157C1.28395 1.79203 1.28395 1.63063 1.38349 1.53109L-0.0307214 0.116874C-0.911315 0.997468 -0.911315 2.42519 -0.0307214 3.30579L1.38349 1.89157ZM5.26565 5.77373L1.38349 1.89157L-0.0307214 3.30579L3.85143 7.18794L5.26565 5.77373ZM1.38349 11.0701L5.26565 7.18794L3.85143 5.77373L-0.0307213 9.65588L1.38349 11.0701ZM1.38349 11.4306C1.28395 11.331 1.28395 11.1696 1.38349 11.0701L-0.0307213 9.65588C-0.911315 10.5365 -0.911315 11.9642 -0.0307214 12.8448L1.38349 11.4306ZM1.74398 11.4306C1.64443 11.5301 1.48304 11.5301 1.38349 11.4306L-0.0307214 12.8448C0.849872 13.7254 2.2776 13.7254 3.15819 12.8448L1.74398 11.4306ZM5.62613 7.54843L1.74398 11.4306L3.15819 12.8448L7.04035 8.96264L5.62613 7.54843ZM10.9225 11.4306L7.04035 7.54843L5.62613 8.96264L9.50829 12.8448L10.9225 11.4306ZM11.283 11.4306C11.1834 11.5301 11.022 11.5301 10.9225 11.4306L9.50829 12.8448C10.3889 13.7254 11.8166 13.7254 12.6972 12.8448L11.283 11.4306ZM11.283 11.0701C11.3825 11.1696 11.3825 11.331 11.283 11.4306L12.6972 12.8448C13.5778 11.9642 13.5778 10.5365 12.6972 9.65588L11.283 11.0701ZM7.40083 7.18794L11.283 11.0701L12.6972 9.65588L8.81505 5.77373L7.40083 7.18794ZM11.283 1.89157L7.40083 5.77373L8.81505 7.18794L12.6972 3.30579L11.283 1.89157ZM11.283 1.53109C11.3825 1.63063 11.3825 1.79203 11.283 1.89157L12.6972 3.30579C13.5778 2.42519 13.5778 0.997468 12.6972 0.116874L11.283 1.53109ZM10.9225 1.53109C11.022 1.43154 11.1834 1.43154 11.283 1.53109L12.6972 0.116874C11.8166 -0.76372 10.3889 -0.763719 9.50829 0.116874L10.9225 1.53109ZM7.04035 5.41324L10.9225 1.53109L9.50829 0.116874L5.62613 3.99903L7.04035 5.41324ZM1.74398 1.53109L5.62613 5.41324L7.04035 3.99903L3.15819 0.116874L1.74398 1.53109ZM1.38349 1.53109C1.48304 1.43154 1.64443 1.43154 1.74398 1.53109L3.15819 0.116874C2.2776 -0.76372 0.849873 -0.763721 -0.0307214 0.116874L1.38349 1.53109Z" fill="white" mask="url(#path-1-inside-1_0_404)"/>
</g>
</svg>
